<?xml version="1.0" encoding="UTF-8" standalone="no"?>
<!-- License: GPL. Made by nagoshiashumari: https://github.com/nagoshiashumari/Rpg-Awesome -->

<svg
   fill="#000000"
   width="16"
   height="16"
   viewBox="0 0 0.63999995 0.64000001"
   version="1.1"
   id="svg6"
   sodipodi:docname="favicon.svg"
   inkscape:version="1.1.2 (0a00cf5339, 2022-02-04)"
   inkscape:export-filename="/home/dmorton/cbfpy/images/cbfpy_favicon_32.png"
   inkscape:export-xdpi="96"
   inkscape:export-ydpi="96"
   xmlns:inkscape="http://www.inkscape.org/namespaces/inkscape"
   xmlns:sodipodi="http://sodipodi.sourceforge.net/DTD/sodipodi-0.dtd"
   xmlns="http://www.w3.org/2000/svg"
   xmlns:svg="http://www.w3.org/2000/svg"
   xmlns:rdf="http://www.w3.org/1999/02/22-rdf-syntax-ns#"
   xmlns:cc="http://creativecommons.org/ns#"
   xmlns:dc="http://purl.org/dc/elements/1.1/">
  <defs
     id="defs10">
    <clipPath
       clipPathUnits="userSpaceOnUse"
       id="clipPath5532">
      <rect
         style="fill:none;stroke:#000000;stroke-width:0.04;stroke-opacity:1"
         id="rect5534"
         width="11.029737"
         height="9.2851562"
         x="11.211775"
         y="-17.053169"
         ry="0" />
    </clipPath>
    <clipPath
       clipPathUnits="userSpaceOnUse"
       id="clipPath8998">
      <rect
         style="fill:none;stroke:#000000;stroke-width:0.0110099;stroke-opacity:1"
         id="rect9000"
         width="17.137194"
         height="2.5503449"
         x="32.542343"
         y="-4.5333176" />
    </clipPath>
    <clipPath
       clipPathUnits="userSpaceOnUse"
       id="clipPath8998-5">
      <rect
         style="fill:none;stroke:#000000;stroke-width:0.0110099;stroke-opacity:1"
         id="rect9000-3"
         width="17.137194"
         height="2.5503449"
         x="32.542343"
         y="-4.5333176" />
    </clipPath>
    <clipPath
       clipPathUnits="userSpaceOnUse"
       id="clipPath8998-5-6">
      <rect
         style="fill:none;stroke:#000000;stroke-width:0.0110099;stroke-opacity:1"
         id="rect9000-3-2"
         width="17.137194"
         height="2.5503449"
         x="32.542343"
         y="-4.5333176" />
    </clipPath>
    <clipPath
       clipPathUnits="userSpaceOnUse"
       id="clipPath8998-5-1">
      <rect
         style="fill:none;stroke:#000000;stroke-width:0.0110099;stroke-opacity:1"
         id="rect9000-3-27"
         width="17.137194"
         height="2.5503449"
         x="32.542343"
         y="-4.5333176" />
    </clipPath>
    <clipPath
       clipPathUnits="userSpaceOnUse"
       id="clipPath8998-5-9">
      <rect
         style="fill:none;stroke:#000000;stroke-width:0.0110099;stroke-opacity:1"
         id="rect9000-3-3"
         width="17.137194"
         height="2.5503449"
         x="32.542343"
         y="-4.5333176" />
    </clipPath>
    <clipPath
       clipPathUnits="userSpaceOnUse"
       id="clipPath8998-5-0">
      <rect
         style="fill:none;stroke:#000000;stroke-width:0.0110099;stroke-opacity:1"
         id="rect9000-3-6"
         width="17.137194"
         height="2.5503449"
         x="32.542343"
         y="-4.5333176" />
    </clipPath>
    <clipPath
       clipPathUnits="userSpaceOnUse"
       id="clipPath8998-5-61">
      <rect
         style="fill:none;stroke:#000000;stroke-width:0.0110099;stroke-opacity:1"
         id="rect9000-3-8"
         width="17.137194"
         height="2.5503449"
         x="32.542343"
         y="-4.5333176" />
    </clipPath>
  </defs>
  <sodipodi:namedview
     id="namedview8"
     pagecolor="#ffffff"
     bordercolor="#666666"
     borderopacity="1.0"
     inkscape:pageshadow="2"
     inkscape:pageopacity="0.0"
     inkscape:pagecheckerboard="true"
     showgrid="false"
     inkscape:zoom="31.746062"
     inkscape:cx="11.686489"
     inkscape:cy="11.292739"
     inkscape:window-width="2490"
     inkscape:window-height="1376"
     inkscape:window-x="70"
     inkscape:window-y="27"
     inkscape:window-maximized="1"
     inkscape:current-layer="g13083"
     units="px"
     width="16px" />
  <title
     id="title2">robot-arm</title>
  <g
     id="g12317"
     transform="translate(0.00814438,0.0017755)">
    <g
       id="g13083"
       transform="matrix(0.49875246,0,0,0.49875246,0.06446731,0.05582958)"
       style="fill:#ffffff;stroke:none">
      <circle
         style="fill:#008080;fill-rule:evenodd;stroke-width:0.0799349"
         id="path184"
         cx="0.49601421"
         cy="0.52610248"
         r="0.64160085" />
      <g
         id="g356"
         transform="matrix(1.1732296,0,0,1.1732296,-0.03769518,-0.01971906)">
        <path
           id="path2879"
           style="fill:#ffffff;stroke:none;stroke-width:0.024581"
           d="m 16.939453,1.6796875 a 2.0983312,2.0983312 0 0 0 -0.949219,0.2363281 2.0983312,2.0983312 0 0 0 -0.01172,0.00586 L 4.2363281,6.7441406 A 3.0169499,3.0169499 0 0 0 3.875,6.9023438 3.0169499,3.0169499 0 0 0 2.5898438,10.970703 3.0169499,3.0169499 0 0 0 6.65625,12.257812 3.0169499,3.0169499 0 0 0 6.9296875,12.097656 l 0.00977,0.01953 L 17.755859,5.71875 A 2.0983312,2.0983312 0 0 0 17.923828,5.640625 2.0983312,2.0983312 0 0 0 18.818359,2.8105469 2.0983312,2.0983312 0 0 0 16.939453,1.6796875 Z m -0.06055,0.6835937 A 1.4232588,1.4232588 0 0 1 18.302734,3.7871094 1.4232588,1.4232588 0 0 1 16.878906,5.2109375 1.4232588,1.4232588 0 0 1 15.455078,3.7871094 1.4232588,1.4232588 0 0 1 16.878906,2.3632812 Z M 5.3242188,7.5957031 a 1.9446672,1.9446672 0 0 1 0.060547,0 A 1.9446672,1.9446672 0 0 1 7.328125,9.5390625 1.9446672,1.9446672 0 0 1 5.3847656,11.484375 1.9446672,1.9446672 0 0 1 3.4394531,9.5390625 1.9446672,1.9446672 0 0 1 5.3242188,7.5957031 Z"
           transform="matrix(0.04521619,0,0,0.04521619,-0.09160342,-0.07571556)" />
        <path
           style="fill:#ffffff;stroke:none;stroke-width:0.00111146px;stroke-linecap:butt;stroke-linejoin:miter;stroke-opacity:1"
           d="M 0.13616205,0.46829842 0.30447277,0.91097202 0.50197687,0.85399241 0.2481207,0.42316501 Z"
           id="path3476"
           sodipodi:nodetypes="ccccc" />
        <circle
           style="fill:#ffffff;stroke:none;stroke-width:0.04;stroke-opacity:1"
           id="path3580"
           cx="16.605833"
           cy="-7.794867"
           r="5.2829866"
           clip-path="url(#clipPath5532)"
           transform="matrix(0.03003804,0,0,0.03003804,-0.07897743,1.1900026)" />
        <path
           style="fill:#ffffff;stroke:none;stroke-width:0.00111146px;stroke-linecap:butt;stroke-linejoin:miter;stroke-opacity:1"
           d="m 0.68557428,0.17078928 0.11499921,0.20387751 0.0683276,-0.009499 -0.125526,-0.22833794 z"
           id="path3476-3"
           sodipodi:nodetypes="ccccc" />
        <circle
           style="fill:#ffffff;stroke:none;stroke-width:0.000706656;stroke-opacity:1"
           id="path7329"
           cx="0.83093083"
           cy="0.36465427"
           r="0.046002779" />
        <rect
           style="fill:#ffffff;stroke:none;stroke-width:0.00112987;stroke-opacity:1"
           id="rect7433"
           width="0.13591696"
           height="0.033654388"
           x="0.7651754"
           y="0.37952676" />
        <rect
           style="fill:#ffffff;stroke:none;stroke-width:0.00111146;stroke-opacity:1"
           id="rect7537"
           width="0.033938274"
           height="0.084132209"
           x="0.76518553"
           y="0.39106551" />
        <rect
           style="fill:#ffffff;stroke:none;stroke-width:0.00111146;stroke-opacity:1"
           id="rect7537-6"
           width="0.033938274"
           height="0.084132209"
           x="0.86709112"
           y="0.3910107" />
      </g>
    </g>
  </g>
  <metadata
     id="metadata12302">
    <rdf:RDF>
      <cc:Work
         rdf:about="">
        <dc:title>robot-arm</dc:title>
      </cc:Work>
    </rdf:RDF>
  </metadata>
</svg>
